HIERARCHY
ROOT Hips
{
	OFFSET 0.00000 0.00000 0.00000
	CHANNELS 6 Xposition Yposition Zposition Zrotation Yrotation Xrotation 
	JOINT LHipJoint
	{
		OFFSET 0 0 0
		CHANNELS 3 Zrotation Yrotation Xrotation
		JOINT LeftHip
		{
			OFFSET 1.37590 -1.78394 0.89329
			CHANNELS 3 Zrotation Yrotation Xrotation
			JOINT LeftKnee
			{
				OFFSET 2.47928 -6.81178 0.00000
				CHANNELS 3 Zrotation Yrotation Xrotation
				JOINT LeftAnkle
				{
					OFFSET 2.63345 -7.23535 0.00000
					CHANNELS 3 Zrotation Yrotation Xrotation
					JOINT LeftToe
					{
						OFFSET 0.23938 -0.65768 2.27012
						CHANNELS 3 Zrotation Yrotation Xrotation
						End Site
						{
							OFFSET 0.00000 -0.00000 1.18363
						}
					}
				}
			}
		}
	}
	JOINT RHipJoint
	{
		OFFSET 0 0 0
		CHANNELS 3 Zrotation Yrotation Xrotation
		JOINT RightHip
		{
			OFFSET -1.33617 -1.78394 0.89329
			CHANNELS 3 Zrotation Yrotation Xrotation
			JOINT RightKnee
			{
				OFFSET -2.56922 -7.05888 0.00000
				CHANNELS 3 Zrotation Yrotation Xrotation
				JOINT RightAnkle
				{
					OFFSET -2.56568 -7.04915 0.00000
					CHANNELS 3 Zrotation Yrotation Xrotation
					JOINT RightToe
					{
						OFFSET -0.27533 -0.75646 2.18105
						CHANNELS 3 Zrotation Yrotation Xrotation
						End Site
						{
							OFFSET -0.00000 -0.00000 1.15233
						}
					}
				}
			}
		}
	}
	JOINT lowerback
	{
		OFFSET 0 0 0
		CHANNELS 3 Zrotation Yrotation Xrotation
		JOINT Chest
		{
			OFFSET 0.06190 2.15152 -0.00935
			CHANNELS 3 Zrotation Yrotation Xrotation
			JOINT Chest2
			{
				OFFSET 0.06334 2.15332 0.00872
				CHANNELS 3 Zrotation Yrotation Xrotation
				JOINT lowerneck
				{
					OFFSET 0 0 0
					CHANNELS 3 Zrotation Yrotation Xrotation
					JOINT Neck
					{
						OFFSET -0.04202 1.66908 0.23524
						CHANNELS 3 Zrotation Yrotation Xrotation
						JOINT Head
						{
							OFFSET 0.07510 1.69357 -0.24440
							CHANNELS 3 Zrotation Yrotation Xrotation
							End Site
							{
								OFFSET 0.02556 1.71719 -0.11000
							}
						}
					}
				}
				JOINT LeftCollar
				{
					OFFSET 0 0 0
					CHANNELS 3 Zrotation Yrotation Xrotation
					JOINT LeftShoulder
					{
						OFFSET 3.67168 1.26306 -0.41342
CHANNELS 3 Zrotation Xrotation Yrotation
						JOINT LeftElbow
						{
OFFSET 0 -4.685100 -0.000000
CHANNELS 3 Zrotation Xrotation Yrotation
							JOINT LeftWrist
							{
OFFSET 0 -3.396260 -0.000000
CHANNELS 3 Zrotation Xrotation Yrotation
								JOINT lhand
								{
									OFFSET 0 0 0
CHANNELS 3 Zrotation Xrotation Yrotation
									JOINT LFingers
									{
OFFSET 0 -0.486080 -0.000000
CHANNELS 3 Zrotation Xrotation Yrotation
										End Site
										{
OFFSET 0 -0.391890 -0.000000
										}
									}
								}
								JOINT LThumb
								{
OFFSET 0 0.000000 0.000000
CHANNELS 3 Zrotation Xrotation Yrotation
									End Site
									{
OFFSET 0 -0.397870 0.397870
									}
								}
							}
						}
					}
				}
				JOINT RightCollar
				{
					OFFSET 0 0 0
					CHANNELS 3 Zrotation Yrotation Xrotation
					JOINT RightShoulder
					{
						OFFSET -3.04136 1.42992 -0.76390
CHANNELS 3 Zrotation Xrotation Yrotation
						JOINT RightElbow
						{
OFFSET 0 -5.555760 -0.000000
CHANNELS 3 Zrotation Xrotation Yrotation
							JOINT RightWrist
							{
OFFSET 0 -3.327740 -0.000000
CHANNELS 3 Zrotation Xrotation Yrotation
								JOINT rhand
								{
									OFFSET 0 0 0
CHANNELS 3 Zrotation Xrotation Yrotation
									JOINT RFingers
									{
OFFSET 0 -0.507630 -0.000000
CHANNELS 3 Zrotation Xrotation Yrotation
										End Site
										{
OFFSET 0 -0.409260 -0.000000
										}
									}
								}
								JOINT RThumb
								{
OFFSET 0 0.000000 0.000000
CHANNELS 3 Zrotation Xrotation Yrotation
									End Site
									{
OFFSET 0 -0.415510 0.415510
									}
								}
							}
						}
					}
				}
			}
		}
	}
}
MOTION
Frames: 9
Frame Time: 0.008333333333333333
14.124101 17.446474 5.759072 -134.978125 -77.298234 140.290245 0.000000 0.000000 0.000000 -7.501713 -2.953101 -36.325812 4.382206 12.646284 38.067957 179.973933 3.135978 -0.953012 0.003331 -0.210662 -0.578981 0.000000 0.000000 0.000000 30.704715 0.233833 7.684444 -2.560167 -9.938377 28.784433 -0.321546 0.917121 -10.400360 -0.566281 4.818408 -13.391559 7.570373 3.766280 -5.921917 2.949280 4.447737 -3.601470 -0.906829 2.063107 -0.079339 -6.638049 -5.105933 -18.412708 7.609098 -6.918885 17.411928 2.763273 -2.927016 8.999576 0.000000 0.000000 0.000000 8.176875 22.182142 -37.145780 23.417512 -34.542036 7.373714 16.437009 0.749844 -6.955555 0.000000 0.000000 0.000000 -7.125000 0.000000 0.000000 -8.766278 37.101375 -1.719900 0.000000 0.000000 0.000000 -10.120333 -20.730034 49.660144 -53.744129 -54.397412 -29.192377 -12.184189 -7.162904 9.885701 0.000000 0.000000 0.000000 7.125000 0.000000 0.000000 12.909599 39.761473 1.699597
13.887490 17.422080 5.789194 -135.881601 -78.071693 141.183154 0.000000 0.000000 0.000000 -9.042592 -3.053490 -33.527541 3.820086 11.916031 35.436945 -161.358942 2.233717 -3.808749 0.011948 0.687902 1.890539 0.000000 0.000000 0.000000 29.030266 -0.578613 5.706734 -3.174203 -10.969668 32.180063 -0.173660 1.227046 -7.519539 -0.591945 4.925727 -13.696954 6.971553 3.455033 -6.022918 2.784852 4.068140 -3.690167 -0.772716 1.880573 -0.168163 -6.402440 -4.978485 -18.576239 7.443724 -6.787351 17.713759 2.685372 -2.861462 9.107210 0.000000 0.000000 0.000000 6.461655 20.148486 -36.620662 23.221523 -34.330108 7.262864 16.896018 0.690295 -6.999792 0.000000 0.000000 0.000000 -7.125000 0.000000 0.000000 -8.387712 37.175175 -1.628938 0.000000 0.000000 0.000000 -10.075206 -17.634915 49.687162 -52.650225 -54.009788 -28.304939 -12.119717 -6.661678 10.083997 0.000000 0.000000 0.000000 7.125000 0.000000 0.000000 13.009006 39.953366 1.650541
13.671782 17.411529 5.818313 -136.680705 -79.286226 141.803112 0.000000 0.000000 0.000000 -10.817351 -3.705122 -31.224837 3.443089 11.378767 33.569684 -179.939165 1.474967 -5.435154 0.050250 1.433211 3.941884 0.000000 0.000000 0.000000 27.106262 -1.469680 3.251816 -3.992516 -12.139119 36.241995 -0.048522 0.778509 -3.676160 -0.493994 4.496440 -12.479376 6.028417 3.001129 -5.823744 2.577374 3.547832 -3.693756 -0.513793 1.636838 -0.353475 -6.199421 -4.897974 -18.896690 7.319438 -6.707882 17.979173 2.617258 -2.813665 9.238300 0.000000 0.000000 0.000000 4.826353 17.736159 -36.484682 23.136645 -34.237896 7.215061 17.214384 0.717961 -7.074780 0.000000 0.000000 0.000000 -7.125000 0.000000 0.000000 -8.131026 37.272338 -1.558730 0.000000 0.000000 0.000000 -10.090350 -14.564740 49.448407 -51.340996 -53.520576 -27.249222 -12.085284 -6.096343 10.279950 0.000000 0.000000 0.000000 7.125000 0.000000 0.000000 13.082936 40.145102 1.597186
13.474725 17.413239 5.844409 -137.250962 -80.835974 142.029816 0.000000 0.000000 0.000000 -12.704775 -4.764534 -29.274601 3.214095 11.033154 32.392519 -179.904272 1.032684 -6.313088 0.090849 1.938097 5.334896 0.000000 0.000000 0.000000 25.074513 -2.354808 0.479532 -5.010718 -13.379688 40.836319 -0.011634 -0.394900 0.772771 -0.291385 3.432398 -9.488853 4.843877 2.455944 -5.363752 2.340215 2.931927 -3.593992 -0.158136 1.353787 -0.579010 -6.092785 -4.885606 -19.295998 7.309066 -6.706411 18.122344 2.591529 -2.795108 9.355619 0.000000 0.000000 0.000000 3.310489 14.992390 -36.795799 23.186082 -34.291577 7.242880 17.439197 0.926861 -7.120989 0.000000 0.000000 0.000000 -7.125000 0.000000 0.000000 -7.948523 37.334193 -1.511052 0.000000 0.000000 0.000000 -10.130184 -11.503512 48.878765 -49.880509 -52.944429 -26.079472 -12.117942 -5.455496 10.466104 0.000000 0.000000 0.000000 7.125000 0.000000 0.000000 13.097766 40.332715 1.537370
13.293139 17.423794 5.866162 -137.305302 -82.549162 141.600561 0.000000 0.000000 0.000000 -14.555301 -5.961537 -27.578416 3.101897 10.858148 31.803125 -179.882098 0.895796 -6.876870 0.115449 2.190377 6.032087 0.000000 0.000000 0.000000 23.107215 -3.126753 -2.506083 -6.235803 -14.644069 45.903963 -0.090801 -1.923078 5.211174 -0.094167 1.927441 -5.307000 3.566277 1.886624 -4.698068 2.098769 2.285448 -3.405956 0.250169 1.059480 -0.816240 -6.119185 -4.944150 -19.613593 7.451305 -6.787767 18.057667 2.628695 -2.811017 9.403351 0.000000 0.000000 0.000000 1.931684 12.031398 -37.568555 23.422987 -34.548015 7.376865 17.546721 1.309192 -7.149081 0.000000 0.000000 0.000000 -7.125000 0.000000 0.000000 -7.861969 37.369997 -1.487374 0.000000 0.000000 0.000000 -10.151108 -8.402885 47.943903 -48.287462 -52.279289 -24.813403 -12.250149 -4.738237 10.610579 0.000000 0.000000 0.000000 7.125000 0.000000 0.000000 13.017592 40.487480 1.476928
13.123152 17.438508 5.883051 -136.230866 -84.205627 139.916922 0.000000 0.000000 0.000000 -16.194557 -6.987114 -26.031858 3.073710 10.813351 31.653008 -179.864604 1.046207 -7.414099 0.127677 2.302834 6.343290 0.000000 0.000000 0.000000 21.396136 -3.649144 -5.619974 -7.690738 -15.877518 51.425505 -0.251949 -3.288040 8.889774 -0.005822 0.247721 -0.680581 2.382829 1.369757 -3.886232 1.880754 1.688214 -3.102742 0.645261 0.789699 -0.994789 -6.279442 -5.081299 -19.884367 7.752025 -6.959136 17.779907 2.729045 -2.863627 9.387095 0.000000 0.000000 0.000000 0.701622 8.899611 -38.803765 23.931009 -35.090389 7.667145 17.630432 1.730724 -7.063132 0.000000 0.000000 0.000000 -7.125000 0.000000 0.000000 -7.779323 37.286147 -1.487575 0.000000 0.000000 0.000000 -10.116919 -5.308074 46.603847 -46.590041 -51.522107 -23.477580 -12.526706 -3.990283 10.708891 0.000000 0.000000 0.000000 7.125000 0.000000 0.000000 12.802442 40.609076 1.412480
12.958557 17.452082 5.896459 -133.438167 -85.586420 136.433402 0.000000 0.000000 0.000000 -17.510226 -7.604827 -24.482199 3.057674 10.787806 31.567612 -179.846285 1.331510 -8.017071 0.135914 2.375917 6.545767 0.000000 0.000000 0.000000 20.057567 -3.803769 -8.801228 -9.366864 -17.019184 57.323151 -0.400641 -4.099032 11.239847 -0.041267 -1.217648 3.349052 1.444287 0.958553 -3.012634 1.707254 1.202650 -2.726163 0.965445 0.570255 -1.113001 -6.519661 -5.263504 -20.052208 8.145008 -7.182429 17.354286 2.867080 -2.940306 9.313231 0.000000 0.000000 0.000000 -0.396972 5.781178 -40.380535 24.796359 -35.992324 8.171061 17.785664 1.974677 -6.831842 0.000000 0.000000 0.000000 -7.125000 0.000000 0.000000 -7.616683 37.055611 -1.499121 0.000000 0.000000 0.000000 -10.001312 -2.201181 44.944488 -44.855928 -50.693593 -22.128370 -12.823597 -3.318411 10.779815 0.000000 0.000000 0.000000 7.125000 0.000000 0.000000 12.562968 40.705463 1.354654
12.795201 17.462066 5.908223 -129.218544 -86.622574 131.498124 0.000000 0.000000 0.000000 -18.547155 -7.750495 -22.859165 3.005671 10.704145 31.288698 -179.826414 1.629387 -8.641710 0.140053 2.411537 6.644404 0.000000 0.000000 0.000000 19.041398 -3.574180 -12.042604 -11.214694 -18.024240 63.459035 -0.476043 -4.314572 12.274282 -0.127869 -2.284131 6.292396 0.757100 0.651915 -2.158112 1.573383 0.832863 -2.325084 1.197231 0.401898 -1.184731 -6.765453 -5.441476 -20.123357 8.541654 -7.399720 16.887720 3.008697 -3.018018 9.209703 0.000000 0.000000 0.000000 -1.392847 2.809085 -42.108024 26.045025 -37.249348 8.916428 18.018771 1.898004 -6.487827 0.000000 0.000000 0.000000 -7.125000 0.000000 0.000000 -7.374828 36.711742 -1.513270 0.000000 0.000000 0.000000 -9.817804 0.890910 43.130516 -43.159565 -49.831128 -20.823492 -13.101852 -2.787887 10.815186 0.000000 0.000000 0.000000 7.125000 0.000000 0.000000 12.330957 40.764958 1.310377
12.632496 17.469564 5.919221 -124.781556 -87.372671 126.381245 0.000000 0.000000 0.000000 -19.412963 -7.559204 -21.185317 2.913410 10.553513 30.788592 -179.804375 1.830220 -9.234483 0.138276 2.396733 6.603539 0.000000 0.000000 0.000000 18.217375 -2.980764 -15.398893 -13.186916 -18.845940 69.702667 -0.472805 -3.971150 12.239975 -0.205650 -2.919347 8.054422 0.238535 0.421942 -1.362088 1.457062 0.548651 -1.950188 1.360343 0.271038 -1.245663 -6.957210 -5.577380 -20.139012 8.862850 -7.566581 16.492663 3.123764 -3.078354 9.112821 0.000000 0.000000 0.000000 -2.287737 0.073364 -43.840448 27.724122 -38.859416 9.950720 18.306730 1.481007 -6.127444 0.000000 0.000000 0.000000 -7.125000 0.000000 0.000000 -7.087598 36.352680 -1.516424 0.000000 0.000000 0.000000 -9.603962 3.932924 41.310400 -41.557721 -48.965661 -19.606471 -13.312277 -2.433785 10.827280 0.000000 0.000000 0.000000 7.125000 0.000000 0.000000 12.152028 40.795633 1.281327
